# xmcd
#
# Track frame offsets:
#	150
#	35914
#	73069
#	102752
#	134645
#	164483
#	196780
#	224804
#	260329
#	290361
#	323592
#
# Disc length: 4697 seconds
#
# Revision: 0
# Processed by: cddbd v1.5.2PL0 Copyright (c) Steve Scherf et al.
# Submitted via: audiograbber 1.83.01
#
DISCID=af12570b
DTITLE=Various Artist - DWM 195
DYEAR=1900
DGENRE=
TTITLE0=A. Lee feat. Amanda Wilson. - Gotta Let Go. (Dagio Rmx)
TTITLE1=A. Lee feat. Amanda Wilson - Gotta Let Go. (Fish and Chips Club M)
TTITLE2=A. Lee feat. Amanda Wilson. - Gotta Let Go. (Original Vocal Mix)
TTITLE3=A. Lee feat. Amanda Wilson. - Gotta Let Go. (Sicily Pleasure and M
TTITLE4=A. Lee feat. Amanda Wilson. - Gotta Let Go. (Sicily Pleasure and M
TTITLE5=Air Bureau feat. Zoro and Bequi. - The Space. (Dumb Dan Rmx)
TTITLE6=Air Bureau feat. Zoro and Bequi. - The Space. (Les Adams Dub)
TTITLE7=Air Bureau feat. Zoro and Bequi. - The Space. (Original)
TTITLE8=Air Bureau feat. Zoro and Bequi. - The Space. (Vision Factory Rmx)
TTITLE9=Alex Van Alff. - Let It Go. (Original Mix)
TTITLE10=Alex Van Alff. - Let It Go. (Ramon Zenker Rmx)
EXTD=
EXTT0=
EXTT1=
EXTT2=
EXTT3=
EXTT4=
EXTT5=
EXTT6=
EXTT7=
EXTT8=
EXTT9=
EXTT10=
PLAYORDER=
